HIERARCHY
ROOT Hips
{
 OFFSET 0.000000 0.000000 0.000000
 CHANNELS 6 Xposition Yposition Zposition Yrotation Xrotation Zrotation
 JOINT Chest
 {
  OFFSET 0.000000 9.585900 0.002600
  CHANNELS 3 Yrotation Xrotation Zrotation
  JOINT Chest2
  {
   OFFSET 0.000000 9.601200 -0.005300
   CHANNELS 3 Yrotation Xrotation Zrotation
   JOINT Chest3
   {
    OFFSET 0.000000 9.561800 0.000000
    CHANNELS 3 Yrotation Xrotation Zrotation
    JOINT Chest4
    {
     OFFSET 0.000000 9.552100 0.000000
     CHANNELS 3 Yrotation Xrotation Zrotation
     JOINT Neck
     {
      OFFSET 0.000000 14.453000 0.000000
      CHANNELS 3 Yrotation Xrotation Zrotation
      JOINT Head
      {
       OFFSET 0.000000 8.936500 -0.011300
       CHANNELS 3 Yrotation Xrotation Zrotation
       End Site
       {
        OFFSET 0.000000 17.073600 -0.006000
       }
      }
     }
     JOINT RightCollar
     {
      OFFSET -2.921100 9.558500 0.000000
      CHANNELS 3 Yrotation Xrotation Zrotation
      JOINT RightShoulder
      {
       OFFSET -13.519700 0.000000 0.000000
       CHANNELS 3 Yrotation Xrotation Zrotation
       JOINT RightElbow
       {
        OFFSET 0.000000 -29.696600 0.000000
        CHANNELS 3 Yrotation Xrotation Zrotation
        JOINT RightWrist
        {
         OFFSET 0.000000 -24.004700 0.000000
         CHANNELS 3 Yrotation Xrotation Zrotation
         End Site
         {
          OFFSET 0.000000 -17.728500 0.000000
         }
        }
       }
      }
     }
     JOINT LeftCollar
     {
      OFFSET 2.921100 9.558500 0.000000
      CHANNELS 3 Yrotation Xrotation Zrotation
      JOINT LeftShoulder
      {
       OFFSET 13.519700 0.000000 0.000000
       CHANNELS 3 Yrotation Xrotation Zrotation
       JOINT LeftElbow
       {
        OFFSET 0.000000 -29.696600 0.000000
        CHANNELS 3 Yrotation Xrotation Zrotation
        JOINT LeftWrist
        {
         OFFSET 0.000000 -24.004700 0.000000
         CHANNELS 3 Yrotation Xrotation Zrotation
         End Site
         {
          OFFSET 0.000000 -17.728500 0.000000
         }
        }
       }
      }
     }
    }
   }
  }
 }
 JOINT RightHip
 {
  OFFSET -7.771700 -0.012900 -0.001300
  CHANNELS 3 Yrotation Xrotation Zrotation
  JOINT RightKnee
  {
   OFFSET 0.000000 -40.869800 0.001200
   CHANNELS 3 Yrotation Xrotation Zrotation
   JOINT RightAnkle
   {
    OFFSET 0.000000 -39.717900 0.002100
    CHANNELS 3 Yrotation Xrotation Zrotation
    JOINT RightToe
    {
     OFFSET 0.000000 -4.965400 11.033500
     CHANNELS 3 Yrotation Xrotation Zrotation
     End Site
     {
      OFFSET 0.000000 -1.423100 5.872300
     }
    }
   }
  }
 }
 JOINT LeftHip
 {
  OFFSET 7.771700 -0.012900 -0.001300
  CHANNELS 3 Yrotation Xrotation Zrotation
  JOINT LeftKnee
  {
   OFFSET 0.000000 -40.869800 0.001200
   CHANNELS 3 Yrotation Xrotation Zrotation
   JOINT LeftAnkle
   {
    OFFSET 0.000000 -39.717900 0.002100
    CHANNELS 3 Yrotation Xrotation Zrotation
    JOINT LeftToe
    {
     OFFSET 0.000000 -4.965400 11.033500
     CHANNELS 3 Yrotation Xrotation Zrotation
     End Site
     {
      OFFSET 0.000000 -1.423100 5.872300
     }
    }
   }
  }
 }
}
MOTION
Frames: 5
Frame Time: 0.008333
0.000000 85.388000 0.000000 0.000000 -5.767877 0.000000 0.000000 11.653817 0.000000 0.000000 -5.885947 0.000000 0.000000 -0.000000 0.000000 0.000000 -0.000000 0.000000 0.000000 12.528835 0.000000 0.000000 0.711642 0.000000 0.000000 -0.000000 0.000000 0.000000 0.000000 -90.000000 0.000000 -2.309062 0.000000 0.000000 2.309062 0.000000 0.000000 -0.000000 0.000000 0.000000 -0.000000 90.000000 0.000000 -2.309062 0.000000 0.000000 2.309062 0.000000 0.000000 8.520406 0.000000 0.000000 1.905762 0.000000 -0.000000 -4.658285 0.000000 0.000000 -0.000000 0.000000 0.000000 8.520406 0.000000 0.000000 1.905762 0.000000 -0.000000 -4.658285 0.000000 0.000000 -0.000000 0.000000
-0.805714 52.267898 35.471244 171.213706 -36.772430 -1.918384 3.748189 22.018035 2.072365 0.473465 3.076265 0.377549 0.779138 4.988468 0.625994 3.276115 18.538343 2.759855 1.799044 13.689610 -0.837778 3.756825 -10.285165 -2.389494 -4.986395 -1.092258 -3.386084 -1.517248 -9.271645 0.908639 -176.704312 -63.557597 -166.429242 1.291611 -14.645955 -10.790480 -4.985881 -0.125180 -0.478221 6.582871 -12.961775 3.189482 150.994965 -62.301237 -174.261456 -7.560703 -20.733415 27.004458 -4.324911 -44.243129 3.911066 -162.089632 87.270342 -157.704020 -0.138327 -11.320396 -2.675539 0.055495 -0.207381 0.028149 0.317500 -40.846114 5.430639 71.460577 82.718593 61.271240 -5.810128 -12.342783 9.625439 0.460896 1.631225 0.199476
-0.787499 52.268235 35.443272 171.116779 -36.855237 -1.924217 3.861817 22.143738 2.158304 0.475029 3.086881 0.378703 0.792949 5.079277 0.639556 3.288055 18.588785 2.766464 1.766686 13.496288 -0.908621 3.765627 -10.571067 -2.609852 -4.968915 -1.145760 -3.410545 -1.421152 -9.566249 0.939759 -177.145420 -63.978171 -166.264202 1.289439 -14.505009 -10.696748 -5.073697 -0.190592 -0.483230 6.394087 -13.353516 3.127192 150.581846 -62.856038 -173.584436 -7.540665 -20.687490 27.462769 -4.283601 -44.153881 3.999237 -162.159716 87.253180 -157.757079 -0.148829 -11.338724 -2.685222 0.053504 -0.212268 0.031647 0.346815 -40.767766 5.518013 71.912449 82.746494 61.714795 -5.724892 -12.370003 9.659464 0.372156 1.587603 0.160031
-0.781161 52.258685 35.419968 171.095490 -36.860548 -1.909408 3.898971 22.265304 2.183943 0.480073 3.112417 0.381173 0.796215 5.080293 0.637109 3.303542 18.636609 2.771987 1.742822 13.375050 -1.047598 3.731706 -10.865744 -2.722972 -4.948406 -1.192979 -3.415215 -1.339416 -9.856556 0.966401 -177.577987 -64.470272 -166.103741 1.285110 -14.210936 -10.488139 -5.186997 -0.243318 -0.479447 6.213575 -13.737580 3.072997 150.088997 -63.441147 -172.820513 -7.513174 -20.661640 27.904642 -4.245297 -44.160208 3.996405 -162.497873 87.213149 -158.083603 -0.160074 -11.369445 -2.685524 0.052514 -0.215191 0.033602 0.366642 -40.765483 5.516354 72.166851 82.777131 61.966330 -5.699932 -12.412593 9.665570 0.355923 1.593036 0.156940
-0.775543 52.246018 35.395612 171.066966 -36.853390 -1.887437 3.946184 22.363414 2.206652 0.485144 3.136318 0.383367 0.797570 5.080276 0.635274 3.318342 18.680487 2.777282 1.713640 13.273885 -1.142198 3.699262 -11.085352 -2.846247 -4.911470 -1.235736 -3.403601 -1.282338 -10.138388 0.988765 -177.982569 -65.037362 -165.963525 1.279066 -13.754367 -10.162586 -5.321838 -0.284494 -0.473875 6.042226 -14.108547 3.025793 149.556475 -64.054673 -172.001765 -7.484620 -20.675862 28.355981 -4.202563 -44.183661 3.990069 -163.070206 87.171258 -158.643168 -0.177353 -11.403460 -2.686863 0.053701 -0.216063 0.032717 0.395740 -40.778763 5.508653 72.404989 82.821665 62.205744 -5.670158 -12.453795 9.668578 0.346661 1.597107 0.156802
